Coordinates
version=1
nRows=24
nColumns=24
inDegrees=yes

Units are S.I. units (second, meters, Newtons, ...)
Angles are in degrees.

endheader
time	pelvis_tilt	pelvis_list	pelvis_rotation	pelvis_tx	pelvis_ty	pelvis_tz	hip_flexion_r	hip_adduction_r	hip_rotation_r	knee_angle_r	ankle_angle_r	subtalar_angle_r	mtp_angle_r	hip_flexion_l	hip_adduction_l	hip_rotation_l	knee_angle_l	ankle_angle_l	subtalar_angle_l	mtp_angle_l	lumbar_extension	lumbar_bending	lumbar_rotation
      1.04500000	     22.55906254	     -3.55354932	     -1.64455158	     -0.24978557	      0.97760562	     -0.00667631	     -4.99545984	      1.39870197	    -17.71685159	    -16.61272858	      8.94182306	      3.05572921	     34.93109713	    -36.28693907	      2.16534234	    -15.53125503	      5.52547115	     10.12135107	     16.69884567	     13.42985811	    -30.45005323	      0.33717974	      0.23102017
      1.05000000	     22.69614733	     -3.67366950	     -1.42188741	     -0.24426899	      0.97701589	     -0.00649347	     -5.29583395	      1.78611094	    -18.24211418	    -14.59820160	      8.49376088	      3.44722476	     34.97520614	    -36.83630738	      1.93890936	    -15.51137230	      5.58982684	     10.41527990	     16.80335987	     13.31260757	    -30.58460866	      0.53457691	      0.07806400
      1.05500000	     22.81267865	     -3.78929186	     -1.23266768	     -0.23872073	      0.97637295	     -0.00623496	     -5.56735523	      2.17024762	    -18.74011709	    -12.63743418	      7.98477007	      3.93051748	     35.02799212	    -37.35637073	      1.72802481	    -15.53063945	      5.63514560	     10.70168279	     16.97469314	     13.20988145	    -30.69308552	      0.71288495	     -0.02552694
      1.06000000	     22.92638519	     -3.89469910	     -1.06871340	     -0.23317103	      0.97567411	     -0.00591242	     -5.82710094	      2.54622886	    -19.19798769	    -10.73910616	      7.45125796	      4.44940917	     35.08166250	    -37.86696928	      1.53617634	    -15.55412600	      5.66595531	     10.99291265	     17.12535940	     13.11894040	    -30.79612597	      0.86871198	     -0.11723959
      1.06500000	     23.02204654	     -3.98371463	     -0.92553504	     -0.22763073	      0.97492944	     -0.00553626	     -6.05957053	      2.90768149	    -19.60696293	     -8.90740473	      6.89358920	      5.00302349	     35.13607961	    -38.34531949	      1.36383463	    -15.55906555	      5.67027531	     11.28326852	     17.24196952	     13.03537349	    -30.88185245	      0.99826175	     -0.19572423
      1.07000000	     23.11394903	     -4.06389607	     -0.80423191	     -0.22211043	      0.97414056	     -0.00509504	     -6.27158867	      3.25796856	    -19.97227382	     -7.16764282	      6.32185283	      5.58688105	     35.18138139	    -38.81257028	      1.20656783	    -15.55103430	      5.66027025	     11.57308502	     17.30975842	     12.96608202	    -30.96543475	      1.10655204	     -0.25736147
      1.07500000	     23.18201625	     -4.12851472	     -0.70533754	     -0.21660508	      0.97330897	     -0.00460360	     -6.44046997	      3.58643360	    -20.28783443	     -5.52768270	      5.74058083	      6.20725807	     35.21790155	    -39.24394613	      1.07070624	    -15.52417053	      5.63108934	     11.85933594	     17.33324232	     12.91054478	    -31.02443391	      1.18956705	     -0.30952381
      1.08000000	     23.24768205	     -4.18958687	     -0.62403830	     -0.21111330	      0.97245220	     -0.00407325	     -6.59374527	      3.90391391	    -20.54934828	     -3.98591293	      5.15222779	      6.84983994	     35.23668698	    -39.66624756	      0.94525991	    -15.48646735	      5.58787729	     12.13899789	     17.31054740	     12.87427434	    -31.08271785	      1.26187231	     -0.34342018
      1.08500000	     23.30283231	     -4.24001259	     -0.55798433	     -0.20563988	      0.97157871	     -0.00350999	     -6.71982458	      4.20059030	    -20.76146100	     -2.55466991	      4.56775462	      7.51355895	     35.24013727	    -40.06762084	      0.83463707	    -15.43238753	      5.52763923	     12.40786165	     17.24923322	     12.85470545	    -31.13273299	      1.31772315	     -0.36383683
      1.09000000	     23.35697832	     -4.29013887	     -0.50439967	     -0.20017966	      0.97069743	     -0.00292447	     -6.83193137	      4.48475971	    -20.92077484	     -1.23308994	      3.98634270	      8.19104016	     35.22472890	    -40.45887975	      0.72881598	    -15.36812696	      5.44766165	     12.66605771	     17.14793432	     12.85538385	    -31.18475242	      1.36740462	     -0.37008948
      1.09500000	     23.39856848	     -4.33165760	     -0.46774476	     -0.19471343	      0.96980591	     -0.00232194	     -6.91887419	      4.74497908	    -21.02465640	     -0.02700527	      3.42418820	      8.88382457	     35.18976335	    -40.83165065	      0.64029870	    -15.29533421	      5.35802833	     12.91433346	     17.02059186	     12.87624168	    -31.22122061	      1.40554548	     -0.37637990
      1.10000000	     23.44439192	     -4.37214872	     -0.43687793	     -0.18925056	      0.96892427	     -0.00172377	     -6.99642196	      4.98684523	    -21.09009756	      1.05356593	      2.88861934	      9.59106212	     35.13260925	    -41.20164122	      0.55588342	    -15.21713802	      5.25335281	     13.14467351	     16.87052921	     12.91687164	    -31.26382722	      1.44256158	     -0.36537686
      1.10500000	     23.49023094	     -4.41440586	     -0.41370772	     -0.18377975	      0.96805580	     -0.00112435	     -7.06249893	      5.21332186	    -21.11704502	      2.00865630	      2.38004658	     10.29323387	     35.04890138	    -41.56427602	      0.47416373	    -15.14066476	      5.13187826	     13.36105597	     16.69910770	     12.98124460	    -31.30668470	      1.48101723	     -0.34211683
      1.11000000	     23.51981195	     -4.45170298	     -0.40600663	     -0.17831177	      0.96719550	     -0.00053315	     -7.09751974	      5.41218484	    -21.07693703	      2.83119330	      1.88911595	     10.94857778	     34.95591187	    -41.88754387	      0.40342525	    -15.07049045	      4.96492751	     13.56382712	     16.51318043	     13.05385906	    -31.33204315	      1.51368087	     -0.28397332
      1.11500000	     23.59140604	     -4.50392446	     -0.36821946	     -0.17276913	      0.96637998	      0.00000729	     -7.17388482	      5.61359005	    -21.08354040	      3.52555561	      1.49777838	     11.68198484	     34.81890971	    -42.28184913	      0.30968561	    -14.99361386	      4.84888514	     13.73765340	     16.33759862	     13.17608001	    -31.39573971	      1.57669848	     -0.28153989
      1.12000000	     23.64429879	     -4.55317086	     -0.34334535	     -0.16723769	      0.96558385	      0.00052411	     -7.21419327	      5.78699002	    -21.03738600	      4.07916129	      1.13135446	     12.36744867	     34.64648271	    -42.62897350	      0.22246937	    -14.92287309	      4.67832941	     13.89886426	     16.15055519	     13.32676317	    -31.44170513	      1.63934567	     -0.24122468
      1.12500000	     23.70676775	     -4.60536130	     -0.31650069	     -0.16167564	      0.96482037	      0.00101248	     -7.25496015	      5.94475573	    -20.97258023	      4.49825020	      0.81570359	     13.01569347	     34.44145259	    -42.98158707	      0.13350103	    -14.86219154	      4.49563783	     14.04372489	     15.97373431	     13.50928634	    -31.49536075	      1.71111584	     -0.20593863
      1.13000000	     23.77618776	     -4.65498060	     -0.27981511	     -0.15609455	      0.96409500	      0.00145354	     -7.28888947	      6.07885336	    -20.91254471	      4.77460339	      0.56734578	     13.65076253	     34.16813186	    -43.33044257	      0.04011879	    -14.80176173	      4.29157273	     14.16739998	     15.80632155	     13.76070399	    -31.55545228	      1.78974998	     -0.17744023
      1.13500000	     23.78341900	     -4.66938552	     -0.28664519	     -0.15052696	      0.96332728	      0.00196406	     -7.25920384	      6.15788667	    -20.66562741	      4.95479183	      0.35129199	     13.96945795	     34.10834865	    -43.57501263	     -0.00852678	    -14.74988261	      4.00977243	     14.36508710	     15.67632989	     13.83349636	    -31.54898130	      1.81454422	     -0.12216227
      1.14000000	     23.91953812	     -4.73183213	     -0.18070992	     -0.14485161	      0.96276167	      0.00224841	     -7.32796135	      6.27216307	    -20.79946003	      4.91895385	      0.27066405	     14.78656510	     33.51964143	    -43.96306324	     -0.15644373	    -14.70386596	      3.74301294	     14.39422229	     15.53072034	     14.44605323	    -31.67052136	      1.94828239	     -0.13373257
      1.14500000	     23.95547647	     -4.80652903	     -0.17189374	     -0.13916285	      0.96209340	      0.00267598	     -7.32456364	      6.38436005	    -20.54287558	      4.86826795	      0.03200961	     14.97958575	     33.39165690	    -44.25373552	     -0.25713900	    -14.70576859	      3.48219559	     14.47515362	     15.38638072	     14.56777876	    -31.68537417	      2.05363919	     -0.05563066
      1.15000000	     24.03889459	     -4.87614847	     -0.12288887	     -0.13344162	      0.96149832	      0.00302473	     -7.36767747	      6.48044783	    -20.35395322	      4.70262773	     -0.11992712	     15.20338302	     33.25103526	    -44.57415890	     -0.38236329	    -14.68720433	      3.17940721	     14.57847247	     15.28412356	     14.74982543	    -31.74739299	      2.17647124	     -0.01230174
      1.15500000	     24.09281517	     -4.91202854	     -0.08194280	     -0.12774881	      0.96093287	      0.00335857	     -7.33741849	      6.51998062	    -20.18830558	      4.36555437	     -0.27418871	     15.28810369	     33.18759758	    -44.85028280	     -0.48125111	    -14.62049603	      2.86422445	     14.66489859	     15.23133148	     14.84197469	    -31.78127374	      2.26680620	      0.02708384
      1.16000000	     24.16206598	     -5.00060299	     -0.01358149	     -0.12190059	      0.96040827	      0.00365738	     -7.34250515	      6.60999528	    -20.07413365	      3.94937479	     -0.23162129	     15.59797419	     31.83248751	    -45.13868928	     -0.64128108	    -14.62954351	      2.53920301	     14.44144416	     15.08058224	     16.99605479	    -31.81599753	      2.42559819	      0.05690648
